<?xml version="1.0" encoding="UTF-8" standalone="no"?>
<!DOCTYPE svg PUBLIC "-//W3C//DTD SVG 1.1//EN" "http://www.w3.org/Graphics/SVG/1.1/DTD/svg11.dtd">
<!-- Generated by graphviz version 2.40.1 (20161225.0304)
 -->
<!-- Title: G Pages: 1 -->
<svg width="141pt" height="222pt" viewBox="0.00 0.00 140.90 221.60" xmlns="http://www.w3.org/2000/svg" xmlns:xlink="http://www.w3.org/1999/xlink">
<g id="graph0" class="graph" transform="scale(1 1) rotate(0) translate(4 217.6)">
<title>G</title>
<polygon fill="#ffffff" stroke="transparent" points="-4,4 -4,-217.6 136.9002,-217.6 136.9002,4 -4,4"/>
<!-- Persian -->
<g id="node1" class="node">
<title>Persian</title>
<ellipse fill="none" stroke="#000000" cx="55.2137" cy="-195.6" rx="39.4216" ry="18"/>
<text text-anchor="middle" x="55.2137" y="-191.4" font-family="Times,serif" font-size="14.00" fill="#000000">Persian</text>
</g>
<!-- Persian&#45;&gt;Persian -->
<g id="edge3" class="edge">
<title>Persian-&gt;Persian</title>
<path fill="none" stroke="#000000" d="M90.5638,-203.848C102.796,-203.9353 112.6744,-201.1859 112.6744,-195.6 112.6744,-191.6724 107.7907,-189.1472 100.6389,-188.0243"/>
<polygon fill="#000000" stroke="#000000" points="100.7747,-184.5257 90.5638,-187.352 100.3085,-191.5101 100.7747,-184.5257"/>
<text text-anchor="middle" x="122.7873" y="-191.4" font-family="Times,serif" font-size="14.00" fill="#000000">this</text>
</g>
<!-- Cat -->
<g id="node2" class="node">
<title>Cat</title>
<ellipse fill="none" stroke="#000000" cx="27.2137" cy="-106.8" rx="27" ry="18"/>
<text text-anchor="middle" x="27.2137" y="-102.6" font-family="Times,serif" font-size="14.00" fill="#000000">Cat</text>
</g>
<!-- Persian&#45;&gt;Cat -->
<g id="edge1" class="edge">
<title>Persian-&gt;Cat</title>
<path fill="none" stroke="#000000" d="M26.8748,-182.9977C17.4967,-177.2913 8.1276,-169.5543 2.8939,-159.6 -2.0179,-150.2582 1.1418,-139.7376 6.5981,-130.5602"/>
<polygon fill="#000000" stroke="#000000" points="9.5328,-132.4701 12.3446,-122.2552 3.7764,-128.4871 9.5328,-132.4701"/>
<text text-anchor="middle" x="18.3736" y="-147" font-family="Times,serif" font-size="14.00" fill="#000000">super</text>
</g>
<!-- Cat&#45;&gt;Persian -->
<g id="edge4" class="edge">
<title>Cat-&gt;Persian</title>
<path fill="none" stroke="#000000" d="M32.7759,-124.4402C36.6861,-136.8412 41.997,-153.6843 46.4703,-167.8709"/>
<polygon fill="#000000" stroke="#000000" points="43.2022,-169.1454 49.5475,-177.63 49.8782,-167.0403 43.2022,-169.1454"/>
<text text-anchor="middle" x="53.3266" y="-147" font-family="Times,serif" font-size="14.00" fill="#000000">this</text>
</g>
<!-- Animal -->
<g id="node3" class="node">
<title>Animal</title>
<ellipse fill="none" stroke="#000000" cx="58.2137" cy="-18" rx="40.005" ry="18"/>
<text text-anchor="middle" x="58.2137" y="-13.8" font-family="Times,serif" font-size="14.00" fill="#000000">Animal</text>
</g>
<!-- Cat&#45;&gt;Animal -->
<g id="edge2" class="edge">
<title>Cat-&gt;Animal</title>
<path fill="none" stroke="#000000" d="M33.3383,-89.256C37.6831,-76.8101 43.6023,-59.8545 48.5766,-45.6055"/>
<polygon fill="#000000" stroke="#000000" points="52.0041,-46.4064 51.9957,-35.8115 45.3953,-44.0992 52.0041,-46.4064"/>
<text text-anchor="middle" x="60.3736" y="-58.2" font-family="Times,serif" font-size="14.00" fill="#000000">super</text>
</g>
<!-- Animal&#45;&gt;Persian -->
<g id="edge5" class="edge">
<title>Animal-&gt;Persian</title>
<path fill="none" stroke="#000000" d="M69.0919,-35.6902C71.9965,-41.3342 74.7367,-47.7433 76.2137,-54 85.4182,-92.9908 74.7036,-139.0241 65.5062,-167.7699"/>
<polygon fill="#000000" stroke="#000000" points="62.0931,-166.9392 62.226,-177.5332 68.7286,-169.1685 62.0931,-166.9392"/>
<text text-anchor="middle" x="89.3266" y="-102.6" font-family="Times,serif" font-size="14.00" fill="#000000">this</text>
</g>
</g>
</svg>
