<?xml version="1.0" encoding="UTF-8" standalone="no"?>
<!DOCTYPE svg PUBLIC "-//W3C//DTD SVG 1.1//EN" "http://www.w3.org/Graphics/SVG/1.1/DTD/svg11.dtd">
<!-- Generated by graphviz version 2.40.1 (20161225.0304)
 -->
<!-- Title: G Pages: 1 -->
<svg width="107pt" height="222pt" viewBox="0.00 0.00 107.44 221.60" xmlns="http://www.w3.org/2000/svg" xmlns:xlink="http://www.w3.org/1999/xlink">
<g id="graph0" class="graph" transform="scale(1 1) rotate(0) translate(4 217.6)">
<title>G</title>
<polygon fill="#ffffff" stroke="transparent" points="-4,4 -4,-217.6 103.4395,-217.6 103.4395,4 -4,4"/>
<!-- a -->
<g id="node1" class="node">
<title>a</title>
<ellipse fill="none" stroke="#000000" cx="55.2137" cy="-195.6" rx="27" ry="18"/>
<text text-anchor="middle" x="55.2137" y="-191.4" font-family="Times,serif" font-size="14.00" fill="#000000">a</text>
</g>
<!-- b -->
<g id="node2" class="node">
<title>b</title>
<ellipse fill="none" stroke="#000000" cx="27.2137" cy="-106.8" rx="27" ry="18"/>
<text text-anchor="middle" x="27.2137" y="-102.6" font-family="Times,serif" font-size="14.00" fill="#000000">b</text>
</g>
<!-- a&#45;&gt;b -->
<g id="edge1" class="edge">
<title>a-&gt;b</title>
<path fill="none" stroke="#000000" d="M32.0897,-185.9765C21.1306,-180.0968 9.1026,-171.4085 2.8939,-159.6 -2.0179,-150.2582 1.1418,-139.7376 6.5981,-130.5602"/>
<polygon fill="#000000" stroke="#000000" points="9.5328,-132.4701 12.3446,-122.2552 3.7764,-128.4871 9.5328,-132.4701"/>
<text text-anchor="middle" x="18.3736" y="-147" font-family="Times,serif" font-size="14.00" fill="#000000">super</text>
</g>
<!-- b&#45;&gt;a -->
<g id="edge3" class="edge">
<title>b-&gt;a</title>
<path fill="none" stroke="#000000" d="M32.7759,-124.4402C36.6861,-136.8412 41.997,-153.6843 46.4703,-167.8709"/>
<polygon fill="#000000" stroke="#000000" points="43.2022,-169.1454 49.5475,-177.63 49.8782,-167.0403 43.2022,-169.1454"/>
<text text-anchor="middle" x="53.3266" y="-147" font-family="Times,serif" font-size="14.00" fill="#000000">this</text>
</g>
<!-- c -->
<g id="node3" class="node">
<title>c</title>
<ellipse fill="none" stroke="#000000" cx="58.2137" cy="-18" rx="27" ry="18"/>
<text text-anchor="middle" x="58.2137" y="-13.8" font-family="Times,serif" font-size="14.00" fill="#000000">c</text>
</g>
<!-- b&#45;&gt;c -->
<g id="edge2" class="edge">
<title>b-&gt;c</title>
<path fill="none" stroke="#000000" d="M33.3383,-89.256C37.6831,-76.8101 43.6023,-59.8545 48.5766,-45.6055"/>
<polygon fill="#000000" stroke="#000000" points="52.0041,-46.4064 51.9957,-35.8115 45.3953,-44.0992 52.0041,-46.4064"/>
<text text-anchor="middle" x="60.3736" y="-58.2" font-family="Times,serif" font-size="14.00" fill="#000000">super</text>
</g>
<!-- c&#45;&gt;a -->
<g id="edge4" class="edge">
<title>c-&gt;a</title>
<path fill="none" stroke="#000000" d="M68.7122,-34.9585C71.7559,-40.7766 74.6724,-47.4712 76.2137,-54 85.469,-93.2062 74.5846,-139.533 65.3539,-168.2447"/>
<polygon fill="#000000" stroke="#000000" points="61.9499,-167.3858 62.0683,-177.9799 68.5823,-169.6242 61.9499,-167.3858"/>
<text text-anchor="middle" x="89.3266" y="-102.6" font-family="Times,serif" font-size="14.00" fill="#000000">this</text>
</g>
</g>
</svg>